<svg xmlns="http://www.w3.org/2000/svg" width="2600" height="1700" viewBox="0 0 2600 1700">

<defs>
  <marker id="arrow" markerWidth="14" markerHeight="14" refX="11" refY="7" orient="auto">
    <path d="M0,0 L14,7 L0,14 z" fill="#666"/>
  </marker>
  <style>
    .title { font: 700 46px Arial, Helvetica, sans-serif; fill: #111; }
    .subtitle { font: 400 24px Arial, Helvetica, sans-serif; fill: #444; }
    .stageTitle { font: 700 28px Arial, Helvetica, sans-serif; }
    .stageSubtitle { font: 600 17px Arial, Helvetica, sans-serif; fill:#333; }
    .moduleTitle { font: 700 21px Arial, Helvetica, sans-serif; fill:#111; }
    .body { font: 400 18px Arial, Helvetica, sans-serif; fill:#222; }
    .small { font: 400 16px Arial, Helvetica, sans-serif; fill:#333; }
    .legendTitle { font: 700 18px Arial, Helvetica, sans-serif; fill:#111; }
  </style>
</defs>

<rect x="0" y="0" width="2600" height="1700" fill="#ffffff"/>
<text x="1300.0" y="64" text-anchor="middle" class="title">BIOL550 Mouse RNA-seq Pipeline Architecture</text>
<text x="1300.0" y="102" text-anchor="middle" class="subtitle">Standalone stage modules, explicit checkpoints, and reusable handoffs across collection, cleaning, preparation, and analysis</text>
<rect x="58" y="128" rx="14" ry="14" width="2484" height="56" fill="#f7f7f7" stroke="#d6d6d6" stroke-width="1.5"/>
<text x="1300.0" y="164" text-anchor="middle" class="stageSubtitle">Pipeline principle: each stage owns its own module logic, evidence checkpoint, and handoff artifact</text>
<rect x="58" y="1605" rx="14" ry="14" width="2484" height="50" fill="#fafafa" stroke="#dcdcdc" stroke-width="1.5"/>
<text x="1300.0" y="1637" text-anchor="middle" class="small">Core handoff chain: metadata &amp; raw FASTQs → cleaned FASTQs → aligned counts → DE / GO / interpretation-ready outputs</text>
<rect x="70" y="220" rx="26" ry="26" width="560" height="1320" fill="#EAF1F8" stroke="#365C8D" stroke-width="3"/>
<rect x="70" y="220" rx="26" ry="26" width="560" height="86" fill="#365C8D" stroke="#365C8D" stroke-width="3"/>
<text x="350.0" y="274" text-anchor="middle" class="stageTitle" fill="#fff">1. DATA COLLECTION</text>
<rect x="92" y="370" rx="18" ry="18" width="516" height="255" fill="#fff" stroke="#365C8D" stroke-width="2"/>
<rect x="92" y="370" rx="18" ry="18" width="516" height="44" fill="#365C8D" fill-opacity="0.12" stroke="none"/>
<text x="112" y="399" class="moduleTitle">Study intake + metadata freeze</text>
<circle cx="116" cy="445" r="4.2" fill="#365C8D"/>
<text x="132" y="452" class="body">SRA / BioProject / GEO records</text>
<circle cx="116" cy="487" r="4.2" fill="#365C8D"/>
<text x="132" y="494" class="body">RunInfo snapshot + accession</text>
<text x="132" y="518" class="body">lineage</text>
<circle cx="116" cy="553" r="4.2" fill="#365C8D"/>
<text x="132" y="560" class="body">family manifest + design table</text>
<line x1="350.0" y1="631" x2="350.0" y2="645" stroke="#365C8D" stroke-width="3" marker-end="url(#arrow)"/>
<rect x="92" y="655" rx="18" ry="18" width="516" height="255" fill="#fff" stroke="#365C8D" stroke-width="2"/>
<rect x="92" y="655" rx="18" ry="18" width="516" height="44" fill="#365C8D" fill-opacity="0.12" stroke="none"/>
<text x="112" y="684" class="moduleTitle">Parallel acquisition module</text>
<circle cx="116" cy="730" r="4.2" fill="#365C8D"/>
<text x="132" y="737" class="body">prefetch + fasterq-dump wrappers</text>
<circle cx="116" cy="772" r="4.2" fill="#365C8D"/>
<text x="132" y="779" class="body">worker-based raw-stage execution</text>
<circle cx="116" cy="814" r="4.2" fill="#365C8D"/>
<text x="132" y="821" class="body">resumable logs + run-level</text>
<text x="132" y="845" class="body">checkpoints</text>
<line x1="350.0" y1="916" x2="350.0" y2="930" stroke="#365C8D" stroke-width="3" marker-end="url(#arrow)"/>
<rect x="92" y="940" rx="18" ry="18" width="516" height="255" fill="#fff" stroke="#365C8D" stroke-width="2"/>
<rect x="92" y="940" rx="18" ry="18" width="516" height="44" fill="#365C8D" fill-opacity="0.12" stroke="none"/>
<text x="112" y="969" class="moduleTitle">Raw QC module</text>
<circle cx="116" cy="1015" r="4.2" fill="#365C8D"/>
<text x="132" y="1022" class="body">FastQC per run</text>
<circle cx="116" cy="1057" r="4.2" fill="#365C8D"/>
<text x="132" y="1064" class="body">raw MultiQC aggregation</text>
<circle cx="116" cy="1099" r="4.2" fill="#365C8D"/>
<text x="132" y="1106" class="body">raw QC bundle copied locally</text>
<rect x="88" y="1430" rx="16" ry="16" width="524" height="88" fill="#365C8D" fill-opacity="0.12" stroke="#365C8D" stroke-width="2"/>
<text x="350.0" y="1464" text-anchor="middle" class="stageSubtitle">Handoff: raw FASTQ pairs + run manifest + raw</text>
<text x="350.0" y="1486" text-anchor="middle" class="stageSubtitle">QC bundle</text>
<rect x="690" y="220" rx="26" ry="26" width="560" height="1320" fill="#E8F4F1" stroke="#2E7D6E" stroke-width="3"/>
<rect x="690" y="220" rx="26" ry="26" width="560" height="86" fill="#2E7D6E" stroke="#2E7D6E" stroke-width="3"/>
<text x="970.0" y="274" text-anchor="middle" class="stageTitle" fill="#fff">2. DATA CLEANING</text>
<rect x="712" y="370" rx="18" ry="18" width="516" height="255" fill="#fff" stroke="#2E7D6E" stroke-width="2"/>
<rect x="712" y="370" rx="18" ry="18" width="516" height="44" fill="#2E7D6E" fill-opacity="0.12" stroke="none"/>
<text x="732" y="399" class="moduleTitle">Trimming toolbench</text>
<circle cx="736" cy="445" r="4.2" fill="#2E7D6E"/>
<text x="752" y="452" class="body">FASTX baseline branch</text>
<circle cx="736" cy="487" r="4.2" fill="#2E7D6E"/>
<text x="752" y="494" class="body">fastp default cleanup branch</text>
<circle cx="736" cy="529" r="4.2" fill="#2E7D6E"/>
<text x="752" y="536" class="body">cutadapt targeted-fallback branch</text>
<line x1="970.0" y1="631" x2="970.0" y2="645" stroke="#2E7D6E" stroke-width="3" marker-end="url(#arrow)"/>
<rect x="712" y="655" rx="18" ry="18" width="516" height="255" fill="#fff" stroke="#2E7D6E" stroke-width="2"/>
<rect x="712" y="655" rx="18" ry="18" width="516" height="44" fill="#2E7D6E" fill-opacity="0.12" stroke="none"/>
<text x="732" y="684" class="moduleTitle">Validation module</text>
<circle cx="736" cy="730" r="4.2" fill="#2E7D6E"/>
<text x="752" y="737" class="body">manual-first validation of 1 run</text>
<circle cx="736" cy="772" r="4.2" fill="#2E7D6E"/>
<text x="752" y="779" class="body">scripted automation for n-1</text>
<text x="752" y="803" class="body">remaining runs</text>
<circle cx="736" cy="838" r="4.2" fill="#2E7D6E"/>
<text x="752" y="845" class="body">custom comparison workflow</text>
<line x1="970.0" y1="916" x2="970.0" y2="930" stroke="#2E7D6E" stroke-width="3" marker-end="url(#arrow)"/>
<rect x="712" y="940" rx="18" ry="18" width="516" height="255" fill="#fff" stroke="#2E7D6E" stroke-width="2"/>
<rect x="712" y="940" rx="18" ry="18" width="516" height="44" fill="#2E7D6E" fill-opacity="0.12" stroke="none"/>
<text x="732" y="969" class="moduleTitle">Post-trim QC corroboration</text>
<circle cx="736" cy="1015" r="4.2" fill="#2E7D6E"/>
<text x="752" y="1022" class="body">trimmed FastQC per run</text>
<circle cx="736" cy="1057" r="4.2" fill="#2E7D6E"/>
<text x="752" y="1064" class="body">trimmed MultiQC summary</text>
<circle cx="736" cy="1099" r="4.2" fill="#2E7D6E"/>
<text x="752" y="1106" class="body">GC bell-shape + severity-delta</text>
<text x="752" y="1130" class="body">review</text>
<rect x="708" y="1430" rx="16" ry="16" width="524" height="88" fill="#2E7D6E" fill-opacity="0.12" stroke="#2E7D6E" stroke-width="2"/>
<text x="970.0" y="1464" text-anchor="middle" class="stageSubtitle">Handoff: cleaned FASTQs + per-run QC reports +</text>
<text x="970.0" y="1486" text-anchor="middle" class="stageSubtitle">remediation summaries</text>
<rect x="1310" y="220" rx="26" ry="26" width="560" height="1320" fill="#FBF1E4" stroke="#C97A2B" stroke-width="3"/>
<rect x="1310" y="220" rx="26" ry="26" width="560" height="86" fill="#C97A2B" stroke="#C97A2B" stroke-width="3"/>
<text x="1590.0" y="274" text-anchor="middle" class="stageTitle" fill="#fff">3. DATA PREPARATION</text>
<rect x="1332" y="370" rx="18" ry="18" width="516" height="255" fill="#fff" stroke="#C97A2B" stroke-width="2"/>
<rect x="1332" y="370" rx="18" ry="18" width="516" height="44" fill="#C97A2B" fill-opacity="0.12" stroke="none"/>
<text x="1352" y="399" class="moduleTitle">Reference selection module</text>
<circle cx="1356" cy="445" r="4.2" fill="#C97A2B"/>
<text x="1372" y="452" class="body">GRCm39 primary assembly</text>
<circle cx="1356" cy="487" r="4.2" fill="#C97A2B"/>
<text x="1372" y="494" class="body">Ensembl v115 annotation</text>
<circle cx="1356" cy="529" r="4.2" fill="#C97A2B"/>
<text x="1372" y="536" class="body">reference freeze for</text>
<text x="1372" y="560" class="body">reproducibility</text>
<line x1="1590.0" y1="631" x2="1590.0" y2="645" stroke="#C97A2B" stroke-width="3" marker-end="url(#arrow)"/>
<rect x="1332" y="655" rx="18" ry="18" width="516" height="255" fill="#fff" stroke="#C97A2B" stroke-width="2"/>
<rect x="1332" y="655" rx="18" ry="18" width="516" height="44" fill="#C97A2B" fill-opacity="0.12" stroke="none"/>
<text x="1352" y="684" class="moduleTitle">STAR implementation module</text>
<circle cx="1356" cy="730" r="4.2" fill="#C97A2B"/>
<text x="1372" y="737" class="body">genomeGenerate / index build</text>
<circle cx="1356" cy="772" r="4.2" fill="#C97A2B"/>
<text x="1372" y="779" class="body">paired-end alignment</text>
<circle cx="1356" cy="814" r="4.2" fill="#C97A2B"/>
<text x="1372" y="821" class="body">GeneCounts in same run</text>
<line x1="1590.0" y1="916" x2="1590.0" y2="930" stroke="#C97A2B" stroke-width="3" marker-end="url(#arrow)"/>
<rect x="1332" y="940" rx="18" ry="18" width="516" height="255" fill="#fff" stroke="#C97A2B" stroke-width="2"/>
<rect x="1332" y="940" rx="18" ry="18" width="516" height="44" fill="#C97A2B" fill-opacity="0.12" stroke="none"/>
<text x="1352" y="969" class="moduleTitle">Alignment review + count handoff</text>
<circle cx="1356" cy="1015" r="4.2" fill="#C97A2B"/>
<text x="1372" y="1022" class="body">Log.final.out parsing</text>
<circle cx="1356" cy="1057" r="4.2" fill="#C97A2B"/>
<text x="1372" y="1064" class="body">mapping / noFeature / ambiguous</text>
<text x="1372" y="1088" class="body">checks</text>
<circle cx="1356" cy="1123" r="4.2" fill="#C97A2B"/>
<text x="1372" y="1130" class="body">reverse-stranded count matrix</text>
<text x="1372" y="1154" class="body">(col. 4)</text>
<rect x="1328" y="1430" rx="16" ry="16" width="524" height="88" fill="#C97A2B" fill-opacity="0.12" stroke="#C97A2B" stroke-width="2"/>
<text x="1590.0" y="1464" text-anchor="middle" class="stageSubtitle">Handoff: BAMs + STAR logs + count tables +</text>
<text x="1590.0" y="1486" text-anchor="middle" class="stageSubtitle">family matrix</text>
<rect x="1930" y="220" rx="26" ry="26" width="600" height="1320" fill="#F1E9F8" stroke="#7B4FA0" stroke-width="3"/>
<rect x="1930" y="220" rx="26" ry="26" width="600" height="86" fill="#7B4FA0" stroke="#7B4FA0" stroke-width="3"/>
<text x="2230.0" y="274" text-anchor="middle" class="stageTitle" fill="#fff">4. DATA ANALYSIS &amp; INTERPRETATION</text>
<rect x="1952" y="370" rx="18" ry="18" width="556" height="255" fill="#fff" stroke="#7B4FA0" stroke-width="2"/>
<rect x="1952" y="370" rx="18" ry="18" width="556" height="44" fill="#7B4FA0" fill-opacity="0.12" stroke="none"/>
<text x="1972" y="399" class="moduleTitle">DE standalone module</text>
<circle cx="1976" cy="445" r="4.2" fill="#7B4FA0"/>
<text x="1992" y="452" class="body">DESeq2 interaction design</text>
<circle cx="1976" cy="487" r="4.2" fill="#7B4FA0"/>
<text x="1992" y="494" class="body">~ side_class * geno_class</text>
<circle cx="1976" cy="529" r="4.2" fill="#7B4FA0"/>
<text x="1992" y="536" class="body">contrast inventory fixed before</text>
<text x="1992" y="560" class="body">interpretation</text>
<line x1="2230.0" y1="631" x2="2230.0" y2="645" stroke="#7B4FA0" stroke-width="3" marker-end="url(#arrow)"/>
<rect x="1952" y="655" rx="18" ry="18" width="556" height="255" fill="#fff" stroke="#7B4FA0" stroke-width="2"/>
<rect x="1952" y="655" rx="18" ry="18" width="556" height="44" fill="#7B4FA0" fill-opacity="0.12" stroke="none"/>
<text x="1972" y="684" class="moduleTitle">Interpretation control module</text>
<circle cx="1976" cy="730" r="4.2" fill="#7B4FA0"/>
<text x="1992" y="737" class="body">PCA-first structure review</text>
<circle cx="1976" cy="772" r="4.2" fill="#7B4FA0"/>
<text x="1992" y="779" class="body">sample-distance checks</text>
<circle cx="1976" cy="814" r="4.2" fill="#7B4FA0"/>
<text x="1992" y="821" class="body">bend-point narrowing of large DE</text>
<text x="1992" y="845" class="body">sets</text>
<line x1="2230.0" y1="916" x2="2230.0" y2="930" stroke="#7B4FA0" stroke-width="3" marker-end="url(#arrow)"/>
<rect x="1952" y="940" rx="18" ry="18" width="556" height="255" fill="#fff" stroke="#7B4FA0" stroke-width="2"/>
<rect x="1952" y="940" rx="18" ry="18" width="556" height="44" fill="#7B4FA0" fill-opacity="0.12" stroke="none"/>
<text x="1972" y="969" class="moduleTitle">GO / follow-up module</text>
<circle cx="1976" cy="1015" r="4.2" fill="#7B4FA0"/>
<text x="1992" y="1022" class="body">g:Profiler: GO:BP / KEGG /</text>
<text x="1992" y="1046" class="body">Reactome</text>
<circle cx="1976" cy="1081" r="4.2" fill="#7B4FA0"/>
<text x="1992" y="1088" class="body">shared-gene chart / tree / network</text>
<text x="1992" y="1112" class="body">views</text>
<circle cx="1976" cy="1147" r="4.2" fill="#7B4FA0"/>
<text x="1992" y="1154" class="body">anchor genes + report / paper</text>
<text x="1992" y="1178" class="body">figures</text>
<rect x="1948" y="1430" rx="16" ry="16" width="564" height="88" fill="#7B4FA0" fill-opacity="0.12" stroke="#7B4FA0" stroke-width="2"/>
<text x="2230.0" y="1464" text-anchor="middle" class="stageSubtitle">Handoff: DE tables + bend-point follow-up sets</text>
<text x="2230.0" y="1486" text-anchor="middle" class="stageSubtitle">+ enrichment summaries</text>
<line x1="642" y1="850.0" x2="678" y2="850.0" stroke="#6e6e6e" stroke-width="4" marker-end="url(#arrow)"/>
<line x1="1262" y1="850.0" x2="1298" y2="850.0" stroke="#6e6e6e" stroke-width="4" marker-end="url(#arrow)"/>
<line x1="1882" y1="850.0" x2="1918" y2="850.0" stroke="#6e6e6e" stroke-width="4" marker-end="url(#arrow)"/>
<rect x="1780" y="130" rx="16" ry="16" width="750" height="74" fill="#fffef7" stroke="#d2c48d" stroke-width="1.8"/>
<text x="1802" y="158" class="legendTitle">Design cues</text>
<rect x="1935" y="145" width="18" height="18" fill="#ffffff" stroke="#777" stroke-width="1.3"/>
<text x="1963" y="159" class="small">Standalone module</text>
<text x="1963" y="182" class="small">white block inside each stage</text>
<rect x="2130" y="145" width="18" height="18" fill="#ffffff" stroke="#777" stroke-width="1.3"/>
<text x="2158" y="159" class="small">Checkpoint gate</text>
<text x="2158" y="182" class="small">module output reviewed before handoff</text>
<rect x="2325" y="145" width="18" height="18" fill="#ffffff" stroke="#777" stroke-width="1.3"/>
<text x="2353" y="159" class="small">Reusable handoff</text>
<text x="2353" y="182" class="small">colored footer passed forward</text>
<rect x="110" y="1522" rx="14" ry="14" width="670" height="64" fill="#edf5ff" stroke="#365C8D" stroke-width="1.6"/>
<text x="126" y="1548" class="small">Collection + Cleaning preserve both per-run</text>
<text x="126" y="1568" class="small">evidence and aggregated MultiQC summaries for</text>
<rect x="930" y="1522" rx="14" ry="14" width="720" height="64" fill="#fff7ed" stroke="#C97A2B" stroke-width="1.6"/>
<text x="946" y="1548" class="small">Preparation is explicitly split into reference</text>
<text x="946" y="1568" class="small">choice, index generation, and alignment/count</text>
<rect x="1710" y="1522" rx="14" ry="14" width="820" height="64" fill="#f6edff" stroke="#7B4FA0" stroke-width="1.6"/>
<text x="1726" y="1548" class="small">Analysis stays modular: DE, bend-point narrowing, and GO</text>
<text x="1726" y="1568" class="small">follow-up are separated so interpretation does not drift.</text>
</svg>